<svg width="14" height="19" viewBox="0 0 14 19" fill="none" xmlns="http://www.w3.org/2000/svg">
<g id="Icon">
<path id="Vector" d="M2.33333 0.5C1.71449 0.5 1.121 0.758603 0.683418 1.21892C0.245833 1.67924 0 2.30356 0 2.95455V16.0455C0 16.6964 0.245833 17.3208 0.683418 17.7811C1.121 18.2414 1.71449 18.5 2.33333 18.5H11.6667C12.2855 18.5 12.879 18.2414 13.3166 17.7811C13.7542 17.3208 14 16.6964 14 16.0455V2.95455C14 2.30356 13.7542 1.67924 13.3166 1.21892C12.879 0.758603 12.2855 0.5 11.6667 0.5H2.33333ZM12.4444 2.95455V16.0455C12.4444 16.2625 12.3625 16.4706 12.2166 16.624C12.0708 16.7774 11.8729 16.8636 11.6667 16.8636H2.33333C2.12705 16.8636 1.92922 16.7774 1.78336 16.624C1.6375 16.4706 1.55556 16.2625 1.55556 16.0455V2.95455C1.55556 2.73755 1.6375 2.52944 1.78336 2.376C1.92922 2.22256 2.12705 2.13636 2.33333 2.13636H11.6667C11.8729 2.13636 12.0708 2.22256 12.2166 2.376C12.3625 2.52944 12.4444 2.73755 12.4444 2.95455Z" fill="white"/>
<path id="Vector_2" d="M3.88886 8.68177C4.31842 8.68177 4.66664 8.31546 4.66664 7.86359C4.66664 7.41172 4.31842 7.04541 3.88886 7.04541C3.45931 7.04541 3.11108 7.41172 3.11108 7.86359C3.11108 8.31546 3.45931 8.68177 3.88886 8.68177Z" fill="white"/>
<path id="Vector_3" d="M7.00001 8.68177C7.42956 8.68177 7.77778 8.31546 7.77778 7.86359C7.77778 7.41172 7.42956 7.04541 7.00001 7.04541C6.57045 7.04541 6.22223 7.41172 6.22223 7.86359C6.22223 8.31546 6.57045 8.68177 7.00001 8.68177Z" fill="white"/>
<path id="Vector_4" d="M10.1112 8.68177C10.5408 8.68177 10.889 8.31546 10.889 7.86359C10.889 7.41172 10.5408 7.04541 10.1112 7.04541C9.68166 7.04541 9.33344 7.41172 9.33344 7.86359C9.33344 8.31546 9.68166 8.68177 10.1112 8.68177Z" fill="white"/>
<path id="Vector_5" d="M3.88886 11.9545C4.31842 11.9545 4.66664 11.5882 4.66664 11.1364C4.66664 10.6845 4.31842 10.3182 3.88886 10.3182C3.45931 10.3182 3.11108 10.6845 3.11108 11.1364C3.11108 11.5882 3.45931 11.9545 3.88886 11.9545Z" fill="white"/>
<path id="Vector_6" d="M7.00001 11.9545C7.42956 11.9545 7.77778 11.5882 7.77778 11.1364C7.77778 10.6845 7.42956 10.3182 7.00001 10.3182C6.57045 10.3182 6.22223 10.6845 6.22223 11.1364C6.22223 11.5882 6.57045 11.9545 7.00001 11.9545Z" fill="white"/>
<path id="Vector_7" d="M10.1112 11.9545C10.5408 11.9545 10.889 11.5882 10.889 11.1364C10.889 10.6845 10.5408 10.3182 10.1112 10.3182C9.68166 10.3182 9.33344 10.6845 9.33344 11.1364C9.33344 11.5882 9.68166 11.9545 10.1112 11.9545Z" fill="white"/>
<path id="Vector_8" d="M7.00001 15.2272C7.42956 15.2272 7.77778 14.8609 7.77778 14.4091C7.77778 13.9572 7.42956 13.5909 7.00001 13.5909C6.57045 13.5909 6.22223 13.9572 6.22223 14.4091C6.22223 14.8609 6.57045 15.2272 7.00001 15.2272Z" fill="white"/>
<path id="Vector_9" d="M10.1111 3.77271H3.88886C3.68258 3.77271 3.48475 3.85891 3.33889 4.01235C3.19303 4.16578 3.11108 4.37389 3.11108 4.59089C3.11108 4.80788 3.19303 5.01599 3.33889 5.16943C3.48475 5.32287 3.68258 5.40907 3.88886 5.40907H10.1111C10.3174 5.40907 10.5152 5.32287 10.6611 5.16943C10.8069 5.01599 10.8889 4.80788 10.8889 4.59089C10.8889 4.37389 10.8069 4.16578 10.6611 4.01235C10.5152 3.85891 10.3174 3.77271 10.1111 3.77271Z" fill="white"/>
</g>
</svg>
